<?xml version="1.0" standalone="no"?>
<!DOCTYPE svg PUBLIC "-//W3C//DTD SVG 20010904//EN"
 "http://www.w3.org/TR/2001/REC-SVG-20010904/DTD/svg10.dtd">
<svg version="1.0" xmlns="http://www.w3.org/2000/svg"
 width="500.000000pt" height="500.000000pt" viewBox="0 0 500.000000 500.000000"
 preserveAspectRatio="xMidYMid meet">

<g transform="translate(0.000000,500.000000) scale(0.100000,-0.100000)"
fill="#000000" stroke="none">
<path d="M2260 4994 c-330 -40 -597 -117 -865 -249 -263 -130 -461 -271 -665
-475 -380 -380 -616 -846 -707 -1395 -14 -87 -18 -166 -18 -375 0 -289 10
-377 65 -600 86 -344 247 -674 468 -959 85 -110 292 -317 402 -402 292 -227
610 -382 960 -469 224 -56 311 -65 600 -65 289 0 376 9 600 65 350 87 668 242
960 469 110 85 317 292 402 402 221 285 382 615 468 959 55 223 65 311 65 600
0 289 -9 376 -65 600 -87 350 -242 668 -469 960 -85 110 -292 317 -402 402
-280 217 -609 379 -944 465 -205 52 -304 64 -570 68 -137 1 -266 1 -285 -1z
m1235 -1368 l290 -113 0 -1034 0 -1034 -298 -117 -299 -117 -524 497 c-288
273 -529 499 -534 500 -6 2 -150 -100 -321 -227 -170 -127 -314 -231 -318
-231 -5 0 -61 25 -125 55 l-116 54 0 618 0 619 119 58 c78 39 123 56 132 51 8
-5 102 -74 209 -154 107 -79 246 -182 307 -228 l112 -83 526 500 c289 275 531
500 537 500 7 0 144 -51 303 -114z"/>
<path d="M2820 2709 c-162 -121 -296 -223 -297 -227 -1 -4 132 -108 295 -230
l297 -224 3 226 c1 124 1 327 0 450 l-3 224 -295 -219z"/>
<path d="M1550 2480 c0 -248 1 -262 18 -249 50 40 277 244 277 250 0 6 -201
185 -278 248 -16 13 -17 -4 -17 -249z"/>
</g>
</svg>
